<?xml version="1.0" encoding="UTF-8"?>
<svg width="26px" height="26px" viewBox="0 0 26 26" version="1.1" xmlns="http://www.w3.org/2000/svg" xmlns:xlink="http://www.w3.org/1999/xlink">
    <!-- Generator: Sketch 52.4 (67378) - http://www.bohemiancoding.com/sketch -->
    <title>collection-icon-nostroke-fixed</title>
    <desc>Created with Sketch.</desc>
    <g id="collection-icon-nostroke-fixed" stroke="none" stroke-width="1" fill="none" fill-rule="evenodd">
        <path d="M6.56046334,18.1 C2.54622867,14.4557312 -2.41449635,8.40840436 2.6,3.43979279 C8.58008987,-1.78714195 13,5.31452131 13,5.31452131 C13,5.31452131 17.7475325,-1.69914109 23.4,3.44 C28.5694326,8.50702046 23.5643605,14.3512103 19.44,18.1 C16.0051041,21.2208177 13,24.7700653 13,24.7700653 C13,24.7700653 10.0347817,21.2525548 6.56046334,18.1 Z M7.54888898,17.6024185 C10.1725087,19.988991 13,23.2096558 13,23.2096558 C13,23.2096558 15.3013454,20.437107 18.45,17.6 C22.2306637,14.1920094 27.3252905,8.28726146 22.75,4.16797443 C17.2433168,-0.484435353 13,7.15029907 13,7.15029907 C13,7.15029907 9.05357779,-0.818421217 3.25365172,4.16797443 C-1.26860579,8.9530529 3.88801332,14.2723075 7.54888898,17.6024185 Z" id="Combined-Shape" fill="#000000"></path>
    </g>
</svg>