<?xml version="1.0" encoding="UTF-8"?>
<svg width="27px" height="26px" viewBox="0 0 27 26" version="1.1" xmlns="http://www.w3.org/2000/svg" xmlns:xlink="http://www.w3.org/1999/xlink">
    <!-- Generator: Sketch 50.2 (55047) - http://www.bohemiancoding.com/sketch -->
    <title>Artboard 2</title>
    <desc>Created with Sketch.</desc>
    <defs></defs>
    <g id="Artboard-2" stroke="none" stroke-width="1" fill="none" fill-rule="evenodd">
        <g id="Group" transform="translate(0.000000, 1.000000)">
            <path d="M21.5,25 C22.3284271,25 23,24.3284271 23,23.5 C23,22.6715729 22.3284271,22 21.5,22 C20.6715729,22 20,22.6715729 20,23.5 C20,24.3284271 20.6715729,25 21.5,25 Z" id="Oval-2" fill="#000000"></path>
            <circle id="Oval-2-Copy" fill="#000000" opacity="0.900000036" cx="9.5" cy="23.5" r="1.5"></circle>
            <polyline id="Path-12" stroke="#000000" stroke-linecap="round" stroke-linejoin="round" points="0 0 5.48382775 0 8.66354067 18 22.7307177 18 26 3.4714075 6.20038278 3.28264788"></polyline>
            <path d="M16.528,14 L15.25,14 L15.25,9.914 L13.666,9.914 L13.666,8.951 C13.8880011,8.95700003 14.102499,8.94050019 14.3095,8.9015 C14.516501,8.8624998 14.7024992,8.79350049 14.8675,8.6945 C15.0325008,8.5954995 15.1719994,8.46500081 15.286,8.303 C15.4000006,8.14099919 15.4749998,7.9400012 15.511,7.7 L16.528,7.7 L16.528,14 Z" id="1" fill="#000000"></path>
        </g>
    </g>
</svg>