<svg width="26" height="26" xmlns="http://www.w3.org/2000/svg"><path d="M12.937433 5.26068007a13.36314227 13.36314227 0 0 1 .028763-.03747366c.3801406-.49346451.8183596-.98659627 1.3103592-1.44809687 2.718165-2.54966625 5.8363196-3.10945686 8.9840982-.35678408 4.4873045 4.07373758 2.1495866 9.13945514-4.191917 14.90349134-1.4888038 1.3526714-2.8702799 2.7669056-4.1084404 4.1569335-.4330715.4861901-.8170852.9343659-1.1475976 1.3338194-.1973523.2385178-.3323924.406974-.4006941.4946678l-.3824303.4910097-.3970622-.4792547c-.0723589-.0873372-.2143691-.2547514-.4208537-.4919398-.3454992-.3968743-.7451554-.8429674-1.1937776-1.3279699-1.28245511-1.386454-2.69884557-2.8053502-4.20728211-4.1740875l-.00009105-.0000826C.67420199 12.7541507-1.64073188 7.70817112 2.57607072 3.4103086 5.9313864.5090671 9.0764293 1.07151388 11.6825038 3.72971555c.4674174.47676679.8783269.98601258 1.2305428 1.4955568.0082265.01190118.0163554.02370438.0243864.03540772z" stroke="#000" fill="#FFF" fill-rule="evenodd"/></svg>