<?xml version="1.0" encoding="UTF-8"?>
<svg width="26px" height="26px" viewBox="0 0 26 26" version="1.1" xmlns="http://www.w3.org/2000/svg" xmlns:xlink="http://www.w3.org/1999/xlink">
    <!-- Generator: Sketch 52.4 (67378) - http://www.bohemiancoding.com/sketch -->
    <title>collection-icon-fixfirst-nostroke</title>
    <desc>Created with Sketch.</desc>
    <g id="collection-icon-fixfirst-nostroke" stroke="none" stroke-width="1" fill="none" fill-rule="evenodd">
        <path d="M6.70093478,18.5075827 C2.5819087,14.744076 -2.66381728,8.7003359 2.64220202,3.4884909 C8.35363715,-1.55892463 13,5.33885646 13,5.33885646 C13,5.33885646 17.7354101,-1.56 23.3652417,3.49 C28.8141541,8.69549493 23.371103,14.6996963 19.3008138,18.5075827 C15.6580234,21.9155303 13.029989,24.8488021 13.029989,24.8488021 C13.029989,24.8488021 10.2675871,21.7663918 6.70093478,18.5075827 Z M7.42,17.81 C10.8093028,20.8320576 13.009683,23.2725895 13.009683,23.2725895 C13.009683,23.2725895 14.8471695,21.3031325 18.5824923,17.8089073 C22.287854,14.3427094 27.3334107,8.70202487 22.6675454,4.17433216 C17.3162364,-0.389250751 13.0010443,7.158512 13.0010443,7.158512 C13.0010443,7.158512 8.60876352,-0.49674292 3.33,4.17 C-1.28944196,8.56891593 3.71756579,14.5087401 7.42,17.81 Z" id="Combined-Shape" fill="#231F20"></path>
    </g>
</svg>