<?xml version="1.0" encoding="UTF-8"?>
<svg width="26px" height="26px" viewBox="0 0 26 26" version="1.1" xmlns="http://www.w3.org/2000/svg" xmlns:xlink="http://www.w3.org/1999/xlink">
    <!-- Generator: Sketch 52.4 (67378) - http://www.bohemiancoding.com/sketch -->
    <title>collection-icon-nostroke-fixed-extra-eyeball</title>
    <desc>Created with Sketch.</desc>
    <g id="collection-icon-nostroke-fixed-extra-eyeball" stroke="none" stroke-width="1" fill="none" fill-rule="evenodd">
        <path d="M6.5551035,18.1 C2.59464016,14 -2.41985619,8.40840436 2.59464016,3.43979279 C8.57473003,-1.78714195 12.9946402,5.31452131 12.9946402,5.31452131 C12.9946402,5.31452131 17.7421727,-1.69914109 23.3946402,3.44 C28.5640728,8.50702046 23.5590007,14 19.4346402,18.1 C12.9946402,24.7700653 12.9946402,24.7700653 12.9946402,24.7700653 C12.9946402,24.7700653 12.9946402,24.7700653 6.5551035,18.1 Z M7.54352914,17.6024185 C12.9946402,23.2096558 12.9946402,23.2096558 12.9946402,23.2096558 C12.9946402,23.2096558 12.9946402,23.2096558 18.4446402,17.6 C22.2253039,14 27.1752905,8.31928703 22.6,4.2 C17.0933168,-0.452409783 12.9946402,7.15029907 12.9946402,7.15029907 C12.9946402,7.15029907 9.19992607,-0.786395647 3.4,4.2 C-1.12225751,8.98507847 3.8420649,14 7.54352914,17.6024185 Z" id="Combined-Shape" fill="#000000" fill-rule="nonzero"></path>
    </g>
</svg>