<?xml version="1.0" encoding="UTF-8"?>
<svg width="26px" height="26px" viewBox="0 0 26 26" version="1.1" xmlns="http://www.w3.org/2000/svg" xmlns:xlink="http://www.w3.org/1999/xlink">
    <!-- Generator: Sketch 52.4 (67378) - http://www.bohemiancoding.com/sketch -->
    <title>collection-icon-nostroke</title>
    <desc>Created with Sketch.</desc>
    <g id="collection-icon-nostroke" stroke="none" stroke-width="1" fill="none" fill-rule="evenodd">
        <path d="M6.56046334,18.0759867 C2.54622867,14.4317179 -2.42736835,8.40840436 2.587128,3.43979279 C8.56721787,-1.78714195 12.9863197,5.31452131 12.9863197,5.31452131 C12.9863197,5.31452131 17.7563493,-1.58470101 23.4088168,3.55444008 C28.5782493,8.62146054 23.0251195,14.7183397 18.9007591,18.4671294 C15.4658631,21.5879471 13,24.7700653 13,24.7700653 C13,24.7700653 10.0347817,21.2285415 6.56046334,18.0759867 Z M7.54888898,17.6024185 C10.1725087,19.988991 13,23.2096558 13,23.2096558 C13,23.2096558 15.1755543,20.497558 18.3242089,17.660451 C22.1048727,14.2524603 27.2180161,8.28726146 22.6427255,4.16797443 C17.1360424,-0.484435353 13,7.15029907 13,7.15029907 C13,7.15029907 9.05357779,-0.818421217 3.25365172,4.16797443 C-1.26860579,8.9530529 3.88801332,14.2723075 7.54888898,17.6024185 Z" id="Combined-Shape" fill="#000000"></path>
    </g>
</svg>