<?xml version="1.0" encoding="UTF-8"?>
<svg width="26px" height="26px" viewBox="0 0 26 26" version="1.1" xmlns="http://www.w3.org/2000/svg" xmlns:xlink="http://www.w3.org/1999/xlink">
    <!-- Generator: Sketch 52.4 (67378) - http://www.bohemiancoding.com/sketch -->
    <title>feed</title>
    <desc>Created with Sketch.</desc>
    <g id="feed" stroke="none" stroke-width="1" fill="none" fill-rule="evenodd">
        <path d="M14.7802637,1.1675567 L4.09790909,14.2353788 C3.92313842,14.4491774 3.95477678,14.764175 4.16857534,14.9389457 C4.25788034,15.0119485 4.36967923,15.0518291 4.48502563,15.0518291 L8.98368364,15.0518291 C9.25982601,15.0518291 9.48368364,15.2756868 9.48368364,15.5518291 C9.48368364,15.5795893 9.48137177,15.6073012 9.47677199,15.6346777 L7.9987188,24.4315864 C7.95296283,24.7039116 8.13663346,24.9617673 8.40895864,25.0075233 C8.57504575,25.0354292 8.74402248,24.9778474 8.85850973,24.8543308 L21.8841602,10.8013826 C22.0718795,10.5988584 22.0598777,10.2825034 21.8573535,10.0947841 C21.7649074,10.0090961 21.643508,9.96148669 21.5174576,9.96148669 L15.0462802,9.96148669 C14.7701378,9.96148669 14.5462802,9.73762907 14.5462802,9.46148669 C14.5462802,9.43800231 14.5479347,9.41454712 14.5512315,9.3912953 L15.6624289,1.55419839 C15.7011945,1.28079057 15.5109794,1.02772398 15.2375716,0.988958342 C15.0643898,0.96440343 14.8909668,1.03213252 14.7802637,1.1675567 Z" stroke="#000000"></path>
    </g>
</svg>