<?xml version="1.0" encoding="UTF-8"?>
<svg width="20px" height="25px" viewBox="0 0 20 25" version="1.1" xmlns="http://www.w3.org/2000/svg" xmlns:xlink="http://www.w3.org/1999/xlink">
    <!-- Generator: Sketch 50.2 (55047) - http://www.bohemiancoding.com/sketch -->
    <title>feed</title>
    <desc>Created with Sketch.</desc>
    <defs></defs>
    <g id="Symbols" stroke="none" stroke-width="1" fill="none" fill-rule="evenodd">
        <g id="header/newfan/messages" transform="translate(1.000000, -2.000000)" stroke="#000000">
            <path d="M10.7350061,2.92043601 L0.23508111,15.6316003 C0.059217148,15.8445004 0.089240918,16.159656 0.302141078,16.33552 C0.391749142,16.4095398 0.504344716,16.4500301 0.62057095,16.4500301 L5.02519005,16.4500301 C5.30133242,16.4500301 5.52519005,16.6738878 5.52519005,16.9500301 C5.52519005,16.9780767 5.52283022,17.0060736 5.51813554,17.0337245 L4.06824669,25.5733267 C4.02202359,25.845573 4.20525159,26.1037435 4.47749787,26.1499665 C4.64292607,26.1780536 4.81141301,26.1212892 4.92611877,25.998823 L17.7335603,12.3248942 C17.9223323,12.1233508 17.911979,11.8069376 17.7104357,11.6181656 C17.6177807,11.531382 17.4955838,11.4830922 17.3686337,11.4830922 L11.021147,11.4830922 C10.7450046,11.4830922 10.521147,11.2592346 10.521147,10.9830922 C10.521147,10.9593643 10.522836,10.9356665 10.5262013,10.9121784 L11.6154417,3.30977966 C11.6546063,3.03642871 11.4647607,2.78308479 11.1914097,2.7439202 C11.01891,2.71920515 10.8459861,2.78608413 10.7350061,2.92043601 Z" id="feed"></path>
        </g>
    </g>
</svg>