<?xml version="1.0" encoding="UTF-8"?>
<svg width="26px" height="26px" viewBox="0 0 26 26" version="1.1" xmlns="http://www.w3.org/2000/svg" xmlns:xlink="http://www.w3.org/1999/xlink">
    <!-- Generator: Sketch 52.4 (67378) - http://www.bohemiancoding.com/sketch -->
    <title>feed</title>
    <desc>Created with Sketch.</desc>
    <g id="feed" stroke="none" stroke-width="1" fill="none" fill-rule="evenodd">
        <path d="M14.3981705,0.842333882 C14.6194726,0.571374697 14.9662856,0.435768037 15.3126873,0.484750505 C15.8595321,0.562076336 16.2401523,1.06806655 16.1628265,1.61491128 L15.0477926,9.50038008 L21.519784,9.45677306 C21.77418,9.45505899 22.0196654,9.55036774 22.206258,9.72329386 C22.6113349,10.0987019 22.6353862,10.7314099 22.2599782,11.1364867 L9.21841738,25.2087328 C8.98925974,25.456001 8.65093709,25.5711609 8.31851272,25.5150466 C7.77393223,25.4231199 7.40698389,24.9071288 7.49891066,24.3625483 L8.98664856,15.5490875 L4.49452252,15.5490875 C4.26397778,15.5490875 4.0405142,15.4694284 3.86195592,15.3235935 C3.43420809,14.9742366 3.37065966,14.3442688 3.72001655,13.9165209 L14.3981705,0.842333882 Z M15.1632233,1.49349976 L4.49357433,14.5591346 L8.98215547,14.5591346 C9.53444022,14.5591346 9.98215547,15.0068498 9.98215547,15.5591346 C9.98215547,15.614595 9.9775417,15.6699592 9.9683619,15.7246546 L8.49097264,24.5272794 L21.5173562,10.4696002 L15.0347292,10.4696002 C14.4824444,10.4696002 14.0347292,10.0218849 14.0347292,9.46960017 C14.0347292,9.42231455 14.0380831,9.37508847 14.0447656,9.32827742 L15.1632233,1.49349976 Z" id="Combined-Shape" fill="#000000"></path>
    </g>
</svg>