<svg width="108" height="17" xmlns="http://www.w3.org/2000/svg"><g fill-rule="nonzero" fill="none"><path d="M22.626 0h2.058v4.932h.037c.56-.934 1.734-1.513 2.781-1.513 2.944 0 4.371 2.317 4.371 5.139 0 2.596-1.264 5.044-4.028 5.044-1.264 0-2.619-.317-3.233-1.588h-.036v1.327h-1.95V0m4.605 5.1c-1.733 0-2.619 1.365-2.619 3.42 0 1.942.958 3.4 2.62 3.4 1.878 0 2.582-1.719 2.582-3.4-.001-1.756-.886-3.42-2.583-3.42M47.823 3.444c-1.229 0-2.294.654-2.909 1.72l-.036-.038v-1.42h-1.95v8.227c-1.175.013-1.284.013-1.374.013-.379 0-.487-.205-.487-.728V6.247c0-2.036-1.915-2.803-3.74-2.803-2.059 0-4.1.729-4.243 3.214h2.058c.091-1.046.903-1.532 2.06-1.532.83 0 1.932.206 1.932 1.308 0 1.252-1.318 1.084-2.8 1.364-1.734.205-3.594.599-3.594 3.008 0 1.888 1.517 2.821 3.197 2.821 1.102 0 2.42-.355 3.233-1.175.162.877.759 1.175 1.59 1.175.343 0 .993-.13 4.214-.242v-.02h.012V7.669c0-1.42.886-2.542 2.258-2.542 1.21 0 1.789.655 1.824 2.168v6.072h2.06V6.733c.004-2.167-1.279-3.288-3.302-3.288h-.003zm-8.811 6.671c0 1.345-1.41 1.832-2.312 1.832-.723 0-1.897-.282-1.897-1.234 0-1.121.795-1.458 1.68-1.608.903-.167 1.896-.148 2.529-.578v1.588zM61.731 13.34h-1.95v-1.308h-.036c-.542 1.103-1.717 1.57-2.89 1.57-2.944 0-4.371-2.262-4.371-5.157 0-3.494 2.005-5.026 4.046-5.026 1.173 0 2.474.448 3.106 1.513h.037V0h2.058v13.34m-4.605-1.42c1.842 0 2.619-1.737 2.619-3.42 0-2.129-.994-3.4-2.583-3.4-1.933 0-2.62 1.775-2.62 3.513 0 1.663.795 3.307 2.584 3.307M69.914 6.939c-.163-1.177-.994-1.813-2.132-1.813-1.066 0-2.564.58-2.564 3.513 0 1.607.686 3.308 2.474 3.308 1.192 0 2.022-.824 2.222-2.206h2.059c-.38 2.504-1.879 3.886-4.28 3.886-2.927 0-4.534-2.148-4.534-4.988 0-2.915 1.535-5.194 4.605-5.194 2.168 0 4.01 1.12 4.209 3.494h-2.059M90.47 5.051c-.416-1.102-1.48-1.607-2.619-1.607-1.482 0-2.259.654-2.872 1.607l-.054-1.345h-1.951v8.227c-1.175.013-1.285.013-1.374.013-.38 0-.487-.205-.487-.728V6.247c0-2.036-1.915-2.803-3.74-2.803-2.058 0-4.1.729-4.244 3.214h2.06c.089-1.046.902-1.532 2.058-1.532.831 0 1.933.206 1.933 1.308 0 1.252-1.32 1.084-2.8 1.364-1.734.205-3.594.599-3.594 3.008 0 1.888 1.516 2.821 3.196 2.821 1.102 0 2.421-.355 3.233-1.175.163.877.758 1.175 1.59 1.175.343 0 .994-.13 4.185-.242l.042-5.755c0-1.607.976-2.504 2.041-2.504 1.246 0 1.644.71 1.644 2.037v6.203h2.059V7.705c0-1.626.595-2.579 1.987-2.579 1.607 0 1.698 1.065 1.698 2.598v5.642h2.058v-6.67c.002-2.355-1.154-3.251-3.122-3.251-1.356 0-2.24.616-2.927 1.606zm-13.728 6.896c-.722 0-1.896-.282-1.896-1.234 0-1.121.795-1.458 1.68-1.608.903-.167 1.896-.148 2.528-.578v1.588c0 1.345-1.409 1.832-2.312 1.832zM100.332 3.706v1.308h.036c.578-1.102 1.698-1.57 2.89-1.57 2.945 0 4.371 2.318 4.371 5.14 0 2.595-1.264 5.043-4.027 5.043-1.193 0-2.476-.448-3.125-1.512h-.037v4.82h-2.058V3.705h1.95zm.036 4.84c0 1.942.957 3.4 2.62 3.4 1.878 0 2.583-1.72 2.583-3.4 0-1.757-.887-3.42-2.584-3.42-1.733 0-2.619 1.364-2.619 3.42z" fill="#333"/><path fill="#1DA0C3" d="M0 13.285L7.197 0H22.61l-7.197 13.285z"/></g></svg>